{
	"asset":{
		"generator":"Khronos glTF Blender I/O v3.6.27",
		"version":"2.0"
	},
	"scene":0,
	"scenes":[
		{
			"name":"Scene",
			"nodes":[
				0
			]
		}
	],
	"nodes":[
		{
			"mesh":0,
			"name":"Icosphere.001",
			"rotation":[
				0.7067578434944153,
				0.02221076563000679,
				-0.02221076190471649,
				0.7067579627037048
			],
			"scale":[
				0.7311404347419739,
				0.7311405539512634,
				0.7311404943466187
			]
		}
	],
	"materials":[
		{
			"doubleSided":true,
			"emissiveFactor":[
				0.8729011416435242,
				0.2899828255176544,
				1
			],
			"name":"Ice cream",
			"pbrMetallicRoughness":{
				"baseColorFactor":[
					0,
					0,
					0,
					1
				]
			}
		},
		{
			"doubleSided":true,
			"emissiveFactor":[
				1,
				0.651137113571167,
				0.21632052958011627
			],
			"name":"Cone",
			"pbrMetallicRoughness":{
				"baseColorFactor":[
					0,
					0,
					0,
					1
				]
			}
		}
	],
	"meshes":[
		{
			"name":"Icosphere.001",
			"primitives":[
				{
					"attributes":{
						"POSITION":0,
						"NORMAL":1,
						"TEXCOORD_0":2
					},
					"indices":3,
					"material":0
				},
				{
					"attributes":{
						"POSITION":4,
						"NORMAL":5,
						"TEXCOORD_0":6
					},
					"indices":7,
					"material":1
				}
			]
		}
	],
	"accessors":[
		{
			"bufferView":0,
			"componentType":5126,
			"count":120,
			"max":[
				1.0819710493087769,
				1.0488085746765137,
				0.22895479202270508
			],
			"min":[
				-1.0819710493087769,
				-1.0488085746765137,
				-3.34297776222229
			],
			"type":"VEC3"
		},
		{
			"bufferView":1,
			"componentType":5126,
			"count":120,
			"type":"VEC3"
		},
		{
			"bufferView":2,
			"componentType":5126,
			"count":120,
			"type":"VEC2"
		},
		{
			"bufferView":3,
			"componentType":5123,
			"count":120,
			"type":"SCALAR"
		},
		{
			"bufferView":4,
			"componentType":5126,
			"count":32,
			"max":[
				0.7989977598190308,
				0.798997700214386,
				3.3620152473449707
			],
			"min":[
				-0.7989976406097412,
				-0.798997700214386,
				-0.004988431930541992
			],
			"type":"VEC3"
		},
		{
			"bufferView":5,
			"componentType":5126,
			"count":32,
			"type":"VEC3"
		},
		{
			"bufferView":6,
			"componentType":5126,
			"count":32,
			"type":"VEC2"
		},
		{
			"bufferView":7,
			"componentType":5123,
			"count":42,
			"type":"SCALAR"
		}
	],
	"bufferViews":[
		{
			"buffer":0,
			"byteLength":1440,
			"byteOffset":0,
			"target":34962
		},
		{
			"buffer":0,
			"byteLength":1440,
			"byteOffset":1440,
			"target":34962
		},
		{
			"buffer":0,
			"byteLength":960,
			"byteOffset":2880,
			"target":34962
		},
		{
			"buffer":0,
			"byteLength":240,
			"byteOffset":3840,
			"target":34963
		},
		{
			"buffer":0,
			"byteLength":384,
			"byteOffset":4080,
			"target":34962
		},
		{
			"buffer":0,
			"byteLength":384,
			"byteOffset":4464,
			"target":34962
		},
		{
			"buffer":0,
			"byteLength":256,
			"byteOffset":4848,
			"target":34962
		},
		{
			"buffer":0,
			"byteLength":84,
			"byteOffset":5104,
			"target":34963
		}
	],
	"buffers":[
		{
			"byteLength":5188,
			"uri":"001_icecream.bin"
		}
	]
}
