{
	"asset":{
		"generator":"Khronos glTF Blender I/O v3.6.27",
		"version":"2.0"
	},
	"scene":0,
	"scenes":[
		{
			"name":"Scene",
			"nodes":[
				0
			]
		}
	],
	"nodes":[
		{
			"mesh":0,
			"name":"Coffee",
			"scale":[
				1.7063229084014893,
				1.7063229084014893,
				1.7063229084014893
			],
			"translation":[
				0,
				-1.7063229084014893,
				0
			]
		}
	],
	"materials":[
		{
			"doubleSided":true,
			"emissiveFactor":[
				0.800000011920929,
				0.800000011920929,
				0.800000011920929
			],
			"name":"Coffee",
			"pbrMetallicRoughness":{
				"baseColorFactor":[
					0,
					0,
					0,
					1
				]
			}
		},
		{
			"doubleSided":true,
			"emissiveFactor":[
				0.051001645624637604,
				0.013258450664579868,
				0.009573174640536308
			],
			"name":"Coffee.001",
			"pbrMetallicRoughness":{
				"baseColorFactor":[
					0,
					0,
					0,
					1
				]
			}
		}
	],
	"meshes":[
		{
			"name":"Cylinder",
			"primitives":[
				{
					"attributes":{
						"POSITION":0,
						"NORMAL":1,
						"TEXCOORD_0":2
					},
					"indices":3,
					"material":0
				},
				{
					"attributes":{
						"POSITION":4,
						"NORMAL":5,
						"TEXCOORD_0":6
					},
					"indices":7,
					"material":1
				}
			]
		}
	],
	"accessors":[
		{
			"bufferView":0,
			"componentType":5126,
			"count":186,
			"max":[
				1.696136713027954,
				2,
				1
			],
			"min":[
				-1,
				0,
				-1
			],
			"type":"VEC3"
		},
		{
			"bufferView":1,
			"componentType":5126,
			"count":186,
			"type":"VEC3"
		},
		{
			"bufferView":2,
			"componentType":5126,
			"count":186,
			"type":"VEC2"
		},
		{
			"bufferView":3,
			"componentType":5123,
			"count":318,
			"type":"SCALAR"
		},
		{
			"bufferView":4,
			"componentType":5126,
			"count":48,
			"max":[
				0.8999999761581421,
				1.7000000476837158,
				0.8999999761581421
			],
			"min":[
				-0.8999999761581421,
				0.10000000149011612,
				-0.8999999761581421
			],
			"type":"VEC3"
		},
		{
			"bufferView":5,
			"componentType":5126,
			"count":48,
			"type":"VEC3"
		},
		{
			"bufferView":6,
			"componentType":5126,
			"count":48,
			"type":"VEC2"
		},
		{
			"bufferView":7,
			"componentType":5123,
			"count":84,
			"type":"SCALAR"
		}
	],
	"bufferViews":[
		{
			"buffer":0,
			"byteLength":2232,
			"byteOffset":0,
			"target":34962
		},
		{
			"buffer":0,
			"byteLength":2232,
			"byteOffset":2232,
			"target":34962
		},
		{
			"buffer":0,
			"byteLength":1488,
			"byteOffset":4464,
			"target":34962
		},
		{
			"buffer":0,
			"byteLength":636,
			"byteOffset":5952,
			"target":34963
		},
		{
			"buffer":0,
			"byteLength":576,
			"byteOffset":6588,
			"target":34962
		},
		{
			"buffer":0,
			"byteLength":576,
			"byteOffset":7164,
			"target":34962
		},
		{
			"buffer":0,
			"byteLength":384,
			"byteOffset":7740,
			"target":34962
		},
		{
			"buffer":0,
			"byteLength":168,
			"byteOffset":8124,
			"target":34963
		}
	],
	"buffers":[
		{
			"byteLength":8292,
			"uri":"002_coffee.bin"
		}
	]
}
