{
	"asset":{
		"generator":"Khronos glTF Blender I/O v3.6.27",
		"version":"2.0"
	},
	"scene":0,
	"scenes":[
		{
			"name":"Scene",
			"nodes":[
				0,
				1,
				2,
				3
			]
		}
	],
	"nodes":[
		{
			"name":"Outline",
			"translation":[
				-19,
				0,
				0
			]
		},
		{
			"mesh":0,
			"name":"Water Bottle"
		},
		{
			"mesh":1,
			"name":"Water Bottle.001"
		},
		{
			"mesh":2,
			"name":"Water Bottle.002"
		}
	],
	"materials":[
		{
			"doubleSided":true,
			"emissiveFactor":[
				0.5054866075515747,
				0.7398462891578674,
				1
			],
			"name":"Trans.001",
			"pbrMetallicRoughness":{
				"baseColorFactor":[
					0,
					0,
					0,
					1
				]
			}
		},
		{
			"alphaMode":"BLEND",
			"doubleSided":true,
			"emissiveFactor":[
				0.2778540551662445,
				0.53475421667099,
				1
			],
			"name":"Label.001",
			"pbrMetallicRoughness":{
				"baseColorFactor":[
					0,
					0,
					0,
					1
				]
			}
		},
		{
			"alphaMode":"BLEND",
			"doubleSided":true,
			"emissiveFactor":[
				0.11218634992837906,
				0.282439261674881,
				1
			],
			"name":"Top.001",
			"pbrMetallicRoughness":{
				"baseColorFactor":[
					0,
					0,
					0,
					1
				]
			}
		}
	],
	"meshes":[
		{
			"name":"Plane.003",
			"primitives":[
				{
					"attributes":{
						"POSITION":0,
						"NORMAL":1,
						"TEXCOORD_0":2
					},
					"indices":3,
					"material":0
				}
			]
		},
		{
			"name":"Plane.004",
			"primitives":[
				{
					"attributes":{
						"POSITION":4,
						"NORMAL":5,
						"TEXCOORD_0":6
					},
					"indices":7,
					"material":1
				}
			]
		},
		{
			"name":"Plane.005",
			"primitives":[
				{
					"attributes":{
						"POSITION":8,
						"NORMAL":9,
						"TEXCOORD_0":10
					},
					"indices":11,
					"material":2
				}
			]
		}
	],
	"accessors":[
		{
			"bufferView":0,
			"componentType":5126,
			"count":160,
			"max":[
				1,
				3.000000238418579,
				1
			],
			"min":[
				-1,
				-2.299999952316284,
				-1
			],
			"type":"VEC3"
		},
		{
			"bufferView":1,
			"componentType":5126,
			"count":160,
			"type":"VEC3"
		},
		{
			"bufferView":2,
			"componentType":5126,
			"count":160,
			"type":"VEC2"
		},
		{
			"bufferView":3,
			"componentType":5123,
			"count":276,
			"type":"SCALAR"
		},
		{
			"bufferView":4,
			"componentType":5126,
			"count":96,
			"max":[
				1.0499999523162842,
				1.7000000476837158,
				1.0499999523162842
			],
			"min":[
				-1.0499999523162842,
				0.18285107612609863,
				-1.0499999523162842
			],
			"type":"VEC3"
		},
		{
			"bufferView":5,
			"componentType":5126,
			"count":96,
			"type":"VEC3"
		},
		{
			"bufferView":6,
			"componentType":5126,
			"count":96,
			"type":"VEC2"
		},
		{
			"bufferView":7,
			"componentType":5123,
			"count":192,
			"type":"SCALAR"
		},
		{
			"bufferView":8,
			"componentType":5126,
			"count":48,
			"max":[
				0.43200016021728516,
				3.129999876022339,
				0.4320000410079956
			],
			"min":[
				-0.43199992179870605,
				2.7699997425079346,
				-0.4320000410079956
			],
			"type":"VEC3"
		},
		{
			"bufferView":9,
			"componentType":5126,
			"count":48,
			"type":"VEC3"
		},
		{
			"bufferView":10,
			"componentType":5126,
			"count":48,
			"type":"VEC2"
		},
		{
			"bufferView":11,
			"componentType":5123,
			"count":84,
			"type":"SCALAR"
		}
	],
	"bufferViews":[
		{
			"buffer":0,
			"byteLength":1920,
			"byteOffset":0,
			"target":34962
		},
		{
			"buffer":0,
			"byteLength":1920,
			"byteOffset":1920,
			"target":34962
		},
		{
			"buffer":0,
			"byteLength":1280,
			"byteOffset":3840,
			"target":34962
		},
		{
			"buffer":0,
			"byteLength":552,
			"byteOffset":5120,
			"target":34963
		},
		{
			"buffer":0,
			"byteLength":1152,
			"byteOffset":5672,
			"target":34962
		},
		{
			"buffer":0,
			"byteLength":1152,
			"byteOffset":6824,
			"target":34962
		},
		{
			"buffer":0,
			"byteLength":768,
			"byteOffset":7976,
			"target":34962
		},
		{
			"buffer":0,
			"byteLength":384,
			"byteOffset":8744,
			"target":34963
		},
		{
			"buffer":0,
			"byteLength":576,
			"byteOffset":9128,
			"target":34962
		},
		{
			"buffer":0,
			"byteLength":576,
			"byteOffset":9704,
			"target":34962
		},
		{
			"buffer":0,
			"byteLength":384,
			"byteOffset":10280,
			"target":34962
		},
		{
			"buffer":0,
			"byteLength":168,
			"byteOffset":10664,
			"target":34963
		}
	],
	"buffers":[
		{
			"byteLength":10832,
			"uri":"003_waterBottle.bin"
		}
	]
}
