{
	"asset":{
		"generator":"Khronos glTF Blender I/O v3.6.27",
		"version":"2.0"
	},
	"scene":0,
	"scenes":[
		{
			"name":"Scene",
			"nodes":[
				0,
				1
			]
		}
	],
	"nodes":[
		{
			"name":"Outline",
			"translation":[
				-19,
				0,
				0
			]
		},
		{
			"mesh":0,
			"name":"Water Bottle",
			"rotation":[
				0.13052619993686676,
				0,
				0,
				0.9914448857307434
			]
		}
	],
	"animations":[
		{
			"channels":[
				{
					"sampler":0,
					"target":{
						"node":1,
						"path":"rotation"
					}
				}
			],
			"name":"Water BottleAction",
			"samplers":[
				{
					"input":12,
					"interpolation":"LINEAR",
					"output":13
				}
			]
		}
	],
	"materials":[
		{
			"alphaMode":"BLEND",
			"doubleSided":true,
			"emissiveFactor":[
				0.5054866075515747,
				0.7398462891578674,
				1
			],
			"name":"Trans",
			"pbrMetallicRoughness":{
				"baseColorFactor":[
					0,
					0,
					0,
					1
				]
			}
		},
		{
			"alphaMode":"BLEND",
			"doubleSided":true,
			"emissiveFactor":[
				0.11218634992837906,
				0.282439261674881,
				1
			],
			"name":"Top",
			"pbrMetallicRoughness":{
				"baseColorFactor":[
					0,
					0,
					0,
					1
				]
			}
		},
		{
			"alphaMode":"BLEND",
			"doubleSided":true,
			"emissiveFactor":[
				0.2778540551662445,
				0.53475421667099,
				1
			],
			"name":"Label",
			"pbrMetallicRoughness":{
				"baseColorFactor":[
					0,
					0,
					0,
					1
				]
			}
		}
	],
	"meshes":[
		{
			"name":"Plane",
			"primitives":[
				{
					"attributes":{
						"POSITION":0,
						"NORMAL":1,
						"TEXCOORD_0":2
					},
					"indices":3,
					"material":0
				},
				{
					"attributes":{
						"POSITION":4,
						"NORMAL":5,
						"TEXCOORD_0":6
					},
					"indices":7,
					"material":1
				},
				{
					"attributes":{
						"POSITION":8,
						"NORMAL":9,
						"TEXCOORD_0":10
					},
					"indices":11,
					"material":2
				}
			]
		}
	],
	"accessors":[
		{
			"bufferView":0,
			"componentType":5126,
			"count":160,
			"max":[
				1,
				3.000000238418579,
				1
			],
			"min":[
				-1,
				-2.299999952316284,
				-1
			],
			"type":"VEC3"
		},
		{
			"bufferView":1,
			"componentType":5126,
			"count":160,
			"type":"VEC3"
		},
		{
			"bufferView":2,
			"componentType":5126,
			"count":160,
			"type":"VEC2"
		},
		{
			"bufferView":3,
			"componentType":5123,
			"count":276,
			"type":"SCALAR"
		},
		{
			"bufferView":4,
			"componentType":5126,
			"count":48,
			"max":[
				0.43200016021728516,
				3.129999876022339,
				0.4320000410079956
			],
			"min":[
				-0.43199992179870605,
				2.7699997425079346,
				-0.4320000410079956
			],
			"type":"VEC3"
		},
		{
			"bufferView":5,
			"componentType":5126,
			"count":48,
			"type":"VEC3"
		},
		{
			"bufferView":6,
			"componentType":5126,
			"count":48,
			"type":"VEC2"
		},
		{
			"bufferView":7,
			"componentType":5123,
			"count":84,
			"type":"SCALAR"
		},
		{
			"bufferView":8,
			"componentType":5126,
			"count":32,
			"max":[
				1.0499999523162842,
				1.7000000476837158,
				1.0499999523162842
			],
			"min":[
				-1.0499999523162842,
				0.18285107612609863,
				-1.0499999523162842
			],
			"type":"VEC3"
		},
		{
			"bufferView":9,
			"componentType":5126,
			"count":32,
			"type":"VEC3"
		},
		{
			"bufferView":10,
			"componentType":5126,
			"count":32,
			"type":"VEC2"
		},
		{
			"bufferView":11,
			"componentType":5123,
			"count":48,
			"type":"SCALAR"
		},
		{
			"bufferView":12,
			"componentType":5126,
			"count":101,
			"max":[
				4.166666666666667
			],
			"min":[
				0
			],
			"type":"SCALAR"
		},
		{
			"bufferView":13,
			"componentType":5126,
			"count":101,
			"type":"VEC4"
		}
	],
	"bufferViews":[
		{
			"buffer":0,
			"byteLength":1920,
			"byteOffset":0,
			"target":34962
		},
		{
			"buffer":0,
			"byteLength":1920,
			"byteOffset":1920,
			"target":34962
		},
		{
			"buffer":0,
			"byteLength":1280,
			"byteOffset":3840,
			"target":34962
		},
		{
			"buffer":0,
			"byteLength":552,
			"byteOffset":5120,
			"target":34963
		},
		{
			"buffer":0,
			"byteLength":576,
			"byteOffset":5672,
			"target":34962
		},
		{
			"buffer":0,
			"byteLength":576,
			"byteOffset":6248,
			"target":34962
		},
		{
			"buffer":0,
			"byteLength":384,
			"byteOffset":6824,
			"target":34962
		},
		{
			"buffer":0,
			"byteLength":168,
			"byteOffset":7208,
			"target":34963
		},
		{
			"buffer":0,
			"byteLength":384,
			"byteOffset":7376,
			"target":34962
		},
		{
			"buffer":0,
			"byteLength":384,
			"byteOffset":7760,
			"target":34962
		},
		{
			"buffer":0,
			"byteLength":256,
			"byteOffset":8144,
			"target":34962
		},
		{
			"buffer":0,
			"byteLength":96,
			"byteOffset":8400,
			"target":34963
		},
		{
			"buffer":0,
			"byteLength":404,
			"byteOffset":8496
		},
		{
			"buffer":0,
			"byteLength":1616,
			"byteOffset":8900
		}
	],
	"buffers":[
		{
			"byteLength":10516,
			"uri":"water%20bottle.bin"
		}
	]
}
