{
	"asset":{
		"generator":"Khronos glTF Blender I/O v3.6.27",
		"version":"2.0"
	},
	"scene":0,
	"scenes":[
		{
			"name":"Scene",
			"nodes":[
				0,
				1
			]
		}
	],
	"nodes":[
		{
			"name":"Outline",
			"translation":[
				-19,
				0,
				0
			]
		},
		{
			"mesh":0,
			"name":"Cube",
			"scale":[
				1.5,
				1.5,
				1.5
			],
			"translation":[
				0,
				-2,
				0
			]
		}
	],
	"animations":[
		{
			"channels":[
				{
					"sampler":0,
					"target":{
						"node":1,
						"path":"rotation"
					}
				}
			],
			"name":"CubeAction",
			"samplers":[
				{
					"input":12,
					"interpolation":"LINEAR",
					"output":13
				}
			]
		}
	],
	"materials":[
		{
			"doubleSided":true,
			"emissiveFactor":[
				0.34238341450691223,
				0.16652527451515198,
				0.07612064480781555
			],
			"name":"Pot",
			"pbrMetallicRoughness":{
				"baseColorFactor":[
					0,
					0,
					0,
					1
				]
			}
		},
		{
			"doubleSided":true,
			"emissiveFactor":[
				0.06369909644126892,
				0.027511166408658028,
				0.009969597682356834
			],
			"name":"Dirt",
			"pbrMetallicRoughness":{
				"baseColorFactor":[
					0,
					0,
					0,
					1
				]
			}
		},
		{
			"doubleSided":true,
			"emissiveFactor":[
				0.04350850731134415,
				0.5814630389213562,
				0.05018702894449234
			],
			"name":"Plant",
			"pbrMetallicRoughness":{
				"baseColorFactor":[
					0,
					0,
					0,
					1
				]
			}
		}
	],
	"meshes":[
		{
			"name":"Cube",
			"primitives":[
				{
					"attributes":{
						"POSITION":0,
						"NORMAL":1,
						"TEXCOORD_0":2
					},
					"indices":3,
					"material":0
				},
				{
					"attributes":{
						"POSITION":4,
						"NORMAL":5,
						"TEXCOORD_0":6
					},
					"indices":7,
					"material":1
				},
				{
					"attributes":{
						"POSITION":8,
						"NORMAL":9,
						"TEXCOORD_0":10
					},
					"indices":11,
					"material":2
				}
			]
		}
	],
	"accessors":[
		{
			"bufferView":0,
			"componentType":5126,
			"count":88,
			"max":[
				1,
				2,
				1
			],
			"min":[
				-1,
				0,
				-1
			],
			"type":"VEC3"
		},
		{
			"bufferView":1,
			"componentType":5126,
			"count":88,
			"type":"VEC3"
		},
		{
			"bufferView":2,
			"componentType":5126,
			"count":88,
			"type":"VEC2"
		},
		{
			"bufferView":3,
			"componentType":5123,
			"count":162,
			"type":"SCALAR"
		},
		{
			"bufferView":4,
			"componentType":5126,
			"count":8,
			"max":[
				0.8429386615753174,
				1.5,
				0.8429386615753174
			],
			"min":[
				-0.8429386615753174,
				1.5,
				-0.8429386615753174
			],
			"type":"VEC3"
		},
		{
			"bufferView":5,
			"componentType":5126,
			"count":8,
			"type":"VEC3"
		},
		{
			"bufferView":6,
			"componentType":5126,
			"count":8,
			"type":"VEC2"
		},
		{
			"bufferView":7,
			"componentType":5123,
			"count":18,
			"type":"SCALAR"
		},
		{
			"bufferView":8,
			"componentType":5126,
			"count":408,
			"max":[
				0.7215083837509155,
				3.401019811630249,
				1.088835597038269
			],
			"min":[
				-0.6752203106880188,
				1.4530324935913086,
				-1.0737982988357544
			],
			"type":"VEC3"
		},
		{
			"bufferView":9,
			"componentType":5126,
			"count":408,
			"type":"VEC3"
		},
		{
			"bufferView":10,
			"componentType":5126,
			"count":408,
			"type":"VEC2"
		},
		{
			"bufferView":11,
			"componentType":5123,
			"count":588,
			"type":"SCALAR"
		},
		{
			"bufferView":12,
			"componentType":5126,
			"count":101,
			"max":[
				4.166666666666667
			],
			"min":[
				0
			],
			"type":"SCALAR"
		},
		{
			"bufferView":13,
			"componentType":5126,
			"count":101,
			"type":"VEC4"
		}
	],
	"bufferViews":[
		{
			"buffer":0,
			"byteLength":1056,
			"byteOffset":0,
			"target":34962
		},
		{
			"buffer":0,
			"byteLength":1056,
			"byteOffset":1056,
			"target":34962
		},
		{
			"buffer":0,
			"byteLength":704,
			"byteOffset":2112,
			"target":34962
		},
		{
			"buffer":0,
			"byteLength":324,
			"byteOffset":2816,
			"target":34963
		},
		{
			"buffer":0,
			"byteLength":96,
			"byteOffset":3140,
			"target":34962
		},
		{
			"buffer":0,
			"byteLength":96,
			"byteOffset":3236,
			"target":34962
		},
		{
			"buffer":0,
			"byteLength":64,
			"byteOffset":3332,
			"target":34962
		},
		{
			"buffer":0,
			"byteLength":36,
			"byteOffset":3396,
			"target":34963
		},
		{
			"buffer":0,
			"byteLength":4896,
			"byteOffset":3432,
			"target":34962
		},
		{
			"buffer":0,
			"byteLength":4896,
			"byteOffset":8328,
			"target":34962
		},
		{
			"buffer":0,
			"byteLength":3264,
			"byteOffset":13224,
			"target":34962
		},
		{
			"buffer":0,
			"byteLength":1176,
			"byteOffset":16488,
			"target":34963
		},
		{
			"buffer":0,
			"byteLength":404,
			"byteOffset":17664
		},
		{
			"buffer":0,
			"byteLength":1616,
			"byteOffset":18068
		}
	],
	"buffers":[
		{
			"byteLength":19684,
			"uri":"005_pot.bin"
		}
	]
}
