{
	"asset":{
		"generator":"Khronos glTF Blender I/O v3.6.27",
		"version":"2.0"
	},
	"scene":0,
	"scenes":[
		{
			"name":"Scene",
			"nodes":[
				0,
				1
			]
		}
	],
	"nodes":[
		{
			"name":"Outline",
			"translation":[
				-19,
				0,
				0
			]
		},
		{
			"mesh":0,
			"name":"Cube",
			"rotation":[
				0.319381445646286,
				0,
				0,
				0.9476262331008911
			],
			"scale":[
				1.2704166173934937,
				1.2704167366027832,
				1.2704166173934937
			]
		}
	],
	"animations":[
		{
			"channels":[
				{
					"sampler":0,
					"target":{
						"node":1,
						"path":"rotation"
					}
				}
			],
			"name":"CubeAction",
			"samplers":[
				{
					"input":4,
					"interpolation":"LINEAR",
					"output":5
				}
			]
		}
	],
	"materials":[
		{
			"doubleSided":true,
			"emissiveFactor":[
				0.17886079847812653,
				0.027854887768626213,
				0.0854710042476654
			],
			"name":"\uace0\uad6c\ub9c8",
			"pbrMetallicRoughness":{
				"baseColorFactor":[
					0,
					0,
					0,
					1
				]
			}
		}
	],
	"meshes":[
		{
			"name":"Cube",
			"primitives":[
				{
					"attributes":{
						"POSITION":0,
						"NORMAL":1,
						"TEXCOORD_0":2
					},
					"indices":3,
					"material":0
				}
			]
		}
	],
	"accessors":[
		{
			"bufferView":0,
			"componentType":5126,
			"count":60,
			"max":[
				0.8944249749183655,
				2.5369482040405273,
				0.8506399989128113
			],
			"min":[
				-0.8944249749183655,
				-2.416393280029297,
				-0.8506399989128113
			],
			"type":"VEC3"
		},
		{
			"bufferView":1,
			"componentType":5126,
			"count":60,
			"type":"VEC3"
		},
		{
			"bufferView":2,
			"componentType":5126,
			"count":60,
			"type":"VEC2"
		},
		{
			"bufferView":3,
			"componentType":5123,
			"count":60,
			"type":"SCALAR"
		},
		{
			"bufferView":4,
			"componentType":5126,
			"count":101,
			"max":[
				4.166666666666667
			],
			"min":[
				0
			],
			"type":"SCALAR"
		},
		{
			"bufferView":5,
			"componentType":5126,
			"count":101,
			"type":"VEC4"
		}
	],
	"bufferViews":[
		{
			"buffer":0,
			"byteLength":720,
			"byteOffset":0,
			"target":34962
		},
		{
			"buffer":0,
			"byteLength":720,
			"byteOffset":720,
			"target":34962
		},
		{
			"buffer":0,
			"byteLength":480,
			"byteOffset":1440,
			"target":34962
		},
		{
			"buffer":0,
			"byteLength":120,
			"byteOffset":1920,
			"target":34963
		},
		{
			"buffer":0,
			"byteLength":404,
			"byteOffset":2040
		},
		{
			"buffer":0,
			"byteLength":1616,
			"byteOffset":2444
		}
	],
	"buffers":[
		{
			"byteLength":4060,
			"uri":"006_sweetPotato.bin"
		}
	]
}
