{
	"asset":{
		"generator":"Khronos glTF Blender I/O v3.6.27",
		"version":"2.0"
	},
	"scene":0,
	"scenes":[
		{
			"name":"Scene",
			"nodes":[
				0
			]
		}
	],
	"nodes":[
		{
			"mesh":0,
			"name":"\uc190\uc804\ub4f1",
			"scale":[
				0.6000000834465027,
				0.6000000238418579,
				0.6000000238418579
			]
		}
	],
	"materials":[
		{
			"doubleSided":true,
			"emissiveFactor":[
				0.02909935638308525,
				0.02909935638308525,
				0.02909935638308525
			],
			"name":"\uc190\uc804\ub4f1",
			"pbrMetallicRoughness":{
				"baseColorFactor":[
					0,
					0,
					0,
					1
				]
			}
		},
		{
			"alphaMode":"BLEND",
			"doubleSided":true,
			"emissiveFactor":[
				1,
				0.6856345534324646,
				0.12322243303060532
			],
			"name":"\ube5b",
			"pbrMetallicRoughness":{
				"baseColorFactor":[
					0,
					0,
					0,
					1
				]
			}
		}
	],
	"meshes":[
		{
			"name":"Cube.001",
			"primitives":[
				{
					"attributes":{
						"POSITION":0,
						"NORMAL":1,
						"TEXCOORD_0":2
					},
					"indices":3,
					"material":0
				},
				{
					"attributes":{
						"POSITION":4,
						"NORMAL":5,
						"TEXCOORD_0":6
					},
					"indices":7,
					"material":1
				}
			]
		}
	],
	"accessors":[
		{
			"bufferView":0,
			"componentType":5126,
			"count":120,
			"max":[
				3.9066314697265625,
				1.3845332860946655,
				1.3845332860946655
			],
			"min":[
				-4.003835678100586,
				-1.384533166885376,
				-1.3845332860946655
			],
			"type":"VEC3"
		},
		{
			"bufferView":1,
			"componentType":5126,
			"count":120,
			"type":"VEC3"
		},
		{
			"bufferView":2,
			"componentType":5126,
			"count":120,
			"type":"VEC2"
		},
		{
			"bufferView":3,
			"componentType":5123,
			"count":210,
			"type":"SCALAR"
		},
		{
			"bufferView":4,
			"componentType":5126,
			"count":8,
			"max":[
				-4.003835678100586,
				1.0940247774124146,
				1.0940245389938354
			],
			"min":[
				-4.003835678100586,
				-1.0940245389938354,
				-1.0940245389938354
			],
			"type":"VEC3"
		},
		{
			"bufferView":5,
			"componentType":5126,
			"count":8,
			"type":"VEC3"
		},
		{
			"bufferView":6,
			"componentType":5126,
			"count":8,
			"type":"VEC2"
		},
		{
			"bufferView":7,
			"componentType":5123,
			"count":18,
			"type":"SCALAR"
		}
	],
	"bufferViews":[
		{
			"buffer":0,
			"byteLength":1440,
			"byteOffset":0,
			"target":34962
		},
		{
			"buffer":0,
			"byteLength":1440,
			"byteOffset":1440,
			"target":34962
		},
		{
			"buffer":0,
			"byteLength":960,
			"byteOffset":2880,
			"target":34962
		},
		{
			"buffer":0,
			"byteLength":420,
			"byteOffset":3840,
			"target":34963
		},
		{
			"buffer":0,
			"byteLength":96,
			"byteOffset":4260,
			"target":34962
		},
		{
			"buffer":0,
			"byteLength":96,
			"byteOffset":4356,
			"target":34962
		},
		{
			"buffer":0,
			"byteLength":64,
			"byteOffset":4452,
			"target":34962
		},
		{
			"buffer":0,
			"byteLength":36,
			"byteOffset":4516,
			"target":34963
		}
	],
	"buffers":[
		{
			"byteLength":4552,
			"uri":"007_light.bin"
		}
	]
}
