{
	"asset":{
		"generator":"Khronos glTF Blender I/O v3.6.27",
		"version":"2.0"
	},
	"scene":0,
	"scenes":[
		{
			"name":"Scene",
			"nodes":[
				0,
				1,
				2
			]
		}
	],
	"nodes":[
		{
			"name":"Outline",
			"translation":[
				-19,
				0,
				0
			]
		},
		{
			"mesh":0,
			"name":"Cube",
			"rotation":[
				0.11162567138671875,
				-0.030646223574876785,
				0.18874873220920563,
				0.9751791954040527
			],
			"scale":[
				1.1294324398040771,
				1.129432201385498,
				1.129432201385498
			],
			"translation":[
				0,
				-0.02614891529083252,
				0
			]
		},
		{
			"name":"Empty",
			"scale":[
				10,
				10,
				10
			]
		}
	],
	"animations":[
		{
			"channels":[
				{
					"sampler":0,
					"target":{
						"node":2,
						"path":"rotation"
					}
				}
			],
			"name":"EmptyAction",
			"samplers":[
				{
					"input":8,
					"interpolation":"LINEAR",
					"output":9
				}
			]
		}
	],
	"materials":[
		{
			"doubleSided":true,
			"emissiveFactor":[
				0.8514836430549622,
				0.3227314054965973,
				1
			],
			"name":"candy",
			"pbrMetallicRoughness":{
				"baseColorFactor":[
					0,
					0,
					0,
					1
				]
			}
		},
		{
			"doubleSided":true,
			"emissiveFactor":[
				1,
				1,
				1
			],
			"name":"stick",
			"pbrMetallicRoughness":{
				"baseColorFactor":[
					0,
					0,
					0,
					1
				]
			}
		}
	],
	"meshes":[
		{
			"name":"Cube",
			"primitives":[
				{
					"attributes":{
						"POSITION":0,
						"NORMAL":1,
						"TEXCOORD_0":2
					},
					"indices":3,
					"material":0
				},
				{
					"attributes":{
						"POSITION":4,
						"NORMAL":5,
						"TEXCOORD_0":6
					},
					"indices":7,
					"material":1
				}
			]
		}
	],
	"accessors":[
		{
			"bufferView":0,
			"componentType":5126,
			"count":190,
			"max":[
				0.9141591787338257,
				2.3955440521240234,
				1.0555801391601562
			],
			"min":[
				-0.9141592383384705,
				0.4249238967895508,
				-1.0555799007415771
			],
			"type":"VEC3"
		},
		{
			"bufferView":1,
			"componentType":5126,
			"count":190,
			"type":"VEC3"
		},
		{
			"bufferView":2,
			"componentType":5126,
			"count":190,
			"type":"VEC2"
		},
		{
			"bufferView":3,
			"componentType":5123,
			"count":306,
			"type":"SCALAR"
		},
		{
			"bufferView":4,
			"componentType":5126,
			"count":42,
			"max":[
				0.14734290540218353,
				0.4249238967895508,
				0.170136958360672
			],
			"min":[
				-0.14734295010566711,
				-2.318817377090454,
				-0.170136958360672
			],
			"type":"VEC3"
		},
		{
			"bufferView":5,
			"componentType":5126,
			"count":42,
			"type":"VEC3"
		},
		{
			"bufferView":6,
			"componentType":5126,
			"count":42,
			"type":"VEC2"
		},
		{
			"bufferView":7,
			"componentType":5123,
			"count":54,
			"type":"SCALAR"
		},
		{
			"bufferView":8,
			"componentType":5126,
			"count":101,
			"max":[
				4.166666666666667
			],
			"min":[
				0
			],
			"type":"SCALAR"
		},
		{
			"bufferView":9,
			"componentType":5126,
			"count":101,
			"type":"VEC4"
		}
	],
	"bufferViews":[
		{
			"buffer":0,
			"byteLength":2280,
			"byteOffset":0,
			"target":34962
		},
		{
			"buffer":0,
			"byteLength":2280,
			"byteOffset":2280,
			"target":34962
		},
		{
			"buffer":0,
			"byteLength":1520,
			"byteOffset":4560,
			"target":34962
		},
		{
			"buffer":0,
			"byteLength":612,
			"byteOffset":6080,
			"target":34963
		},
		{
			"buffer":0,
			"byteLength":504,
			"byteOffset":6692,
			"target":34962
		},
		{
			"buffer":0,
			"byteLength":504,
			"byteOffset":7196,
			"target":34962
		},
		{
			"buffer":0,
			"byteLength":336,
			"byteOffset":7700,
			"target":34962
		},
		{
			"buffer":0,
			"byteLength":108,
			"byteOffset":8036,
			"target":34963
		},
		{
			"buffer":0,
			"byteLength":404,
			"byteOffset":8144
		},
		{
			"buffer":0,
			"byteLength":1616,
			"byteOffset":8548
		}
	],
	"buffers":[
		{
			"byteLength":10164,
			"uri":"010_stickCandy.bin"
		}
	]
}
