{
	"asset":{
		"generator":"Khronos glTF Blender I/O v3.6.27",
		"version":"2.0"
	},
	"scene":0,
	"scenes":[
		{
			"name":"Scene",
			"nodes":[
				0
			]
		}
	],
	"nodes":[
		{
			"mesh":0,
			"name":"Cube",
			"rotation":[
				0,
				0,
				0.7071068286895752,
				0.7071068286895752
			],
			"scale":[
				2.000000238418579,
				2,
				2.000000238418579
			]
		}
	],
	"materials":[
		{
			"doubleSided":true,
			"emissiveFactor":[
				0.18446244299411774,
				0.07491447031497955,
				0.05305560678243637
			],
			"name":"cover",
			"pbrMetallicRoughness":{
				"baseColorFactor":[
					0,
					0,
					0,
					1
				]
			}
		},
		{
			"doubleSided":true,
			"emissiveFactor":[
				0.7742716073989868,
				0.7742716073989868,
				0.7742716073989868
			],
			"name":"paper",
			"pbrMetallicRoughness":{
				"baseColorFactor":[
					0,
					0,
					0,
					1
				]
			}
		},
		{
			"doubleSided":true,
			"emissiveFactor":[
				0.6038163900375366,
				0.161906436085701,
				0.5622696876525879
			],
			"name":"Paw",
			"pbrMetallicRoughness":{
				"baseColorFactor":[
					0,
					0,
					0,
					1
				]
			}
		}
	],
	"meshes":[
		{
			"name":"Cube",
			"primitives":[
				{
					"attributes":{
						"POSITION":0,
						"NORMAL":1,
						"TEXCOORD_0":2
					},
					"indices":3,
					"material":0
				},
				{
					"attributes":{
						"POSITION":4,
						"NORMAL":5,
						"TEXCOORD_0":6
					},
					"indices":7,
					"material":1
				},
				{
					"attributes":{
						"POSITION":8,
						"NORMAL":9,
						"TEXCOORD_0":10
					},
					"indices":11,
					"material":2
				}
			]
		}
	],
	"accessors":[
		{
			"bufferView":0,
			"componentType":5126,
			"count":266,
			"max":[
				0.9999998807907104,
				0.18860626220703125,
				0.6909417510032654
			],
			"min":[
				-0.9999998807907104,
				-0.20116055011749268,
				-0.7474412322044373
			],
			"type":"VEC3"
		},
		{
			"bufferView":1,
			"componentType":5126,
			"count":266,
			"type":"VEC3"
		},
		{
			"bufferView":2,
			"componentType":5126,
			"count":266,
			"type":"VEC2"
		},
		{
			"bufferView":3,
			"componentType":5123,
			"count":510,
			"type":"SCALAR"
		},
		{
			"bufferView":4,
			"componentType":5126,
			"count":24,
			"max":[
				0.9060570597648621,
				0.09332329034805298,
				0.6260327100753784
			],
			"min":[
				-0.9060570597648621,
				-0.09534460306167603,
				-0.6260327100753784
			],
			"type":"VEC3"
		},
		{
			"bufferView":5,
			"componentType":5126,
			"count":24,
			"type":"VEC3"
		},
		{
			"bufferView":6,
			"componentType":5126,
			"count":24,
			"type":"VEC2"
		},
		{
			"bufferView":7,
			"componentType":5123,
			"count":36,
			"type":"SCALAR"
		},
		{
			"bufferView":8,
			"componentType":5126,
			"count":40,
			"max":[
				0.3574486970901489,
				0.15067440271377563,
				0.4691859781742096
			],
			"min":[
				-0.36295831203460693,
				0.14769402146339417,
				-0.46413668990135193
			],
			"type":"VEC3"
		},
		{
			"bufferView":9,
			"componentType":5126,
			"count":40,
			"type":"VEC3"
		},
		{
			"bufferView":10,
			"componentType":5126,
			"count":40,
			"type":"VEC2"
		},
		{
			"bufferView":11,
			"componentType":5123,
			"count":90,
			"type":"SCALAR"
		}
	],
	"bufferViews":[
		{
			"buffer":0,
			"byteLength":3192,
			"byteOffset":0,
			"target":34962
		},
		{
			"buffer":0,
			"byteLength":3192,
			"byteOffset":3192,
			"target":34962
		},
		{
			"buffer":0,
			"byteLength":2128,
			"byteOffset":6384,
			"target":34962
		},
		{
			"buffer":0,
			"byteLength":1020,
			"byteOffset":8512,
			"target":34963
		},
		{
			"buffer":0,
			"byteLength":288,
			"byteOffset":9532,
			"target":34962
		},
		{
			"buffer":0,
			"byteLength":288,
			"byteOffset":9820,
			"target":34962
		},
		{
			"buffer":0,
			"byteLength":192,
			"byteOffset":10108,
			"target":34962
		},
		{
			"buffer":0,
			"byteLength":72,
			"byteOffset":10300,
			"target":34963
		},
		{
			"buffer":0,
			"byteLength":480,
			"byteOffset":10372,
			"target":34962
		},
		{
			"buffer":0,
			"byteLength":480,
			"byteOffset":10852,
			"target":34962
		},
		{
			"buffer":0,
			"byteLength":320,
			"byteOffset":11332,
			"target":34962
		},
		{
			"buffer":0,
			"byteLength":180,
			"byteOffset":11652,
			"target":34963
		}
	],
	"buffers":[
		{
			"byteLength":11832,
			"uri":"011_catBook.bin"
		}
	]
}
