{
	"asset":{
		"generator":"Khronos glTF Blender I/O v3.6.27",
		"version":"2.0"
	},
	"scene":0,
	"scenes":[
		{
			"name":"Scene",
			"nodes":[
				0,
				1,
				2
			]
		}
	],
	"nodes":[
		{
			"name":"Outline",
			"translation":[
				-19,
				0,
				0
			]
		},
		{
			"name":"Empty",
			"scale":[
				10,
				10,
				10
			]
		},
		{
			"mesh":0,
			"name":"Plane",
			"scale":[
				1.3235559463500977,
				1.3235559463500977,
				1.3235559463500977
			],
			"translation":[
				0,
				-0.09999999403953552,
				0
			]
		}
	],
	"animations":[
		{
			"channels":[
				{
					"sampler":0,
					"target":{
						"node":1,
						"path":"rotation"
					}
				}
			],
			"name":"EmptyAction",
			"samplers":[
				{
					"input":3,
					"interpolation":"LINEAR",
					"output":4
				}
			]
		}
	],
	"materials":[
		{
			"doubleSided":true,
			"emissiveFactor":[
				0.32637545466423035,
				0.12086276710033417,
				0.04993463680148125
			],
			"name":"test",
			"pbrMetallicRoughness":{
				"baseColorFactor":[
					0,
					0,
					0,
					1
				]
			}
		}
	],
	"meshes":[
		{
			"name":"Plane",
			"primitives":[
				{
					"attributes":{
						"POSITION":0,
						"NORMAL":1
					},
					"indices":2,
					"material":0
				}
			]
		}
	],
	"accessors":[
		{
			"bufferView":0,
			"componentType":5126,
			"count":300,
			"max":[
				2.22631573677063,
				0.10000000149011612,
				1.7995741367340088
			],
			"min":[
				-1.9496458768844604,
				0,
				-2.099700927734375
			],
			"type":"VEC3"
		},
		{
			"bufferView":1,
			"componentType":5126,
			"count":300,
			"type":"VEC3"
		},
		{
			"bufferView":2,
			"componentType":5123,
			"count":588,
			"type":"SCALAR"
		},
		{
			"bufferView":3,
			"componentType":5126,
			"count":101,
			"max":[
				4.166666666666667
			],
			"min":[
				0
			],
			"type":"SCALAR"
		},
		{
			"bufferView":4,
			"componentType":5126,
			"count":101,
			"type":"VEC4"
		}
	],
	"bufferViews":[
		{
			"buffer":0,
			"byteLength":3600,
			"byteOffset":0,
			"target":34962
		},
		{
			"buffer":0,
			"byteLength":3600,
			"byteOffset":3600,
			"target":34962
		},
		{
			"buffer":0,
			"byteLength":1176,
			"byteOffset":7200,
			"target":34963
		},
		{
			"buffer":0,
			"byteLength":404,
			"byteOffset":8376
		},
		{
			"buffer":0,
			"byteLength":1616,
			"byteOffset":8780
		}
	],
	"buffers":[
		{
			"byteLength":10396,
			"uri":"012_mosquitoRepellent.bin"
		}
	]
}
