{
	"asset":{
		"generator":"Khronos glTF Blender I/O v3.6.27",
		"version":"2.0"
	},
	"scene":0,
	"scenes":[
		{
			"name":"Scene",
			"nodes":[
				0,
				1
			]
		}
	],
	"nodes":[
		{
			"mesh":0,
			"name":"Cube",
			"rotation":[
				0.023341065272688866,
				-0.20829875767230988,
				-0.035637110471725464,
				0.9771370887756348
			],
			"scale":[
				2.0065550804138184,
				2.0065548419952393,
				2.0065550804138184
			],
			"translation":[
				-0.22430670261383057,
				0.007410853169858456,
				-0.447445809841156
			]
		},
		{
			"mesh":1,
			"name":"Cube.001",
			"rotation":[
				-0.023841511458158493,
				-0.20716366171836853,
				0.0206107497215271,
				0.977798581123352
			],
			"scale":[
				2.0065548419952393,
				2.0065548419952393,
				2.0065550804138184
			],
			"translation":[
				0.37190955877304077,
				-0.007410829421132803,
				0.2042524814605713
			]
		}
	],
	"materials":[
		{
			"doubleSided":true,
			"emissiveFactor":[
				1,
				1,
				1
			],
			"name":"test.002",
			"pbrMetallicRoughness":{
				"baseColorFactor":[
					0,
					0,
					0,
					1
				]
			}
		}
	],
	"meshes":[
		{
			"name":"Cube.004",
			"primitives":[
				{
					"attributes":{
						"POSITION":0,
						"NORMAL":1,
						"TEXCOORD_0":2
					},
					"indices":3,
					"material":0
				}
			]
		},
		{
			"name":"Cube.005",
			"primitives":[
				{
					"attributes":{
						"POSITION":4,
						"NORMAL":5,
						"TEXCOORD_0":6
					},
					"indices":3,
					"material":0
				}
			]
		}
	],
	"accessors":[
		{
			"bufferView":0,
			"componentType":5126,
			"count":75,
			"max":[
				0.09999997913837433,
				1,
				0.9999998807907104
			],
			"min":[
				-0.09999997913837433,
				-1,
				-0.39999982714653015
			],
			"type":"VEC3"
		},
		{
			"bufferView":1,
			"componentType":5126,
			"count":75,
			"type":"VEC3"
		},
		{
			"bufferView":2,
			"componentType":5126,
			"count":75,
			"type":"VEC2"
		},
		{
			"bufferView":3,
			"componentType":5123,
			"count":156,
			"type":"SCALAR"
		},
		{
			"bufferView":4,
			"componentType":5126,
			"count":75,
			"max":[
				0.09999997913837433,
				1,
				0.9999998807907104
			],
			"min":[
				-0.09999997913837433,
				-1,
				-0.39999982714653015
			],
			"type":"VEC3"
		},
		{
			"bufferView":5,
			"componentType":5126,
			"count":75,
			"type":"VEC3"
		},
		{
			"bufferView":6,
			"componentType":5126,
			"count":75,
			"type":"VEC2"
		}
	],
	"bufferViews":[
		{
			"buffer":0,
			"byteLength":900,
			"byteOffset":0,
			"target":34962
		},
		{
			"buffer":0,
			"byteLength":900,
			"byteOffset":900,
			"target":34962
		},
		{
			"buffer":0,
			"byteLength":600,
			"byteOffset":1800,
			"target":34962
		},
		{
			"buffer":0,
			"byteLength":312,
			"byteOffset":2400,
			"target":34963
		},
		{
			"buffer":0,
			"byteLength":900,
			"byteOffset":2712,
			"target":34962
		},
		{
			"buffer":0,
			"byteLength":900,
			"byteOffset":3612,
			"target":34962
		},
		{
			"buffer":0,
			"byteLength":600,
			"byteOffset":4512,
			"target":34962
		}
	],
	"buffers":[
		{
			"byteLength":5112,
			"uri":"013_socks.bin"
		}
	]
}
