{
	"asset":{
		"generator":"Khronos glTF Blender I/O v3.6.27",
		"version":"2.0"
	},
	"scene":0,
	"scenes":[
		{
			"name":"Scene",
			"nodes":[
				0,
				1
			]
		}
	],
	"nodes":[
		{
			"mesh":0,
			"name":"Cube",
			"rotation":[
				0.023341067135334015,
				-0.20829881727695465,
				-0.03563711419701576,
				0.9771371483802795
			],
			"scale":[
				1.5000001192092896,
				1.5000001192092896,
				1.5000001192092896
			],
			"translation":[
				-0.16768047213554382,
				0.005539983045309782,
				-0.3344880938529968
			]
		},
		{
			"mesh":1,
			"name":"Cube.001",
			"rotation":[
				-0.023841509595513344,
				-0.20716363191604614,
				0.0206107497215271,
				0.977798581123352
			],
			"scale":[
				1.5,
				1.4999998807907104,
				1.5000001192092896
			],
			"translation":[
				0.278020977973938,
				-0.005539965350180864,
				0.15268893539905548
			]
		}
	],
	"materials":[
		{
			"doubleSided":true,
			"emissiveFactor":[
				1,
				1,
				1
			],
			"name":"test",
			"pbrMetallicRoughness":{
				"baseColorFactor":[
					0,
					0,
					0,
					1
				]
			}
		}
	],
	"meshes":[
		{
			"name":"Cube",
			"primitives":[
				{
					"attributes":{
						"POSITION":0,
						"NORMAL":1,
						"TEXCOORD_0":2
					},
					"indices":3,
					"material":0
				}
			]
		},
		{
			"name":"Cube.001",
			"primitives":[
				{
					"attributes":{
						"POSITION":4,
						"NORMAL":5,
						"TEXCOORD_0":6
					},
					"indices":3,
					"material":0
				}
			]
		}
	],
	"accessors":[
		{
			"bufferView":0,
			"componentType":5126,
			"count":75,
			"max":[
				0.09999997913837433,
				1,
				0.9999998807907104
			],
			"min":[
				-0.09999997913837433,
				-1,
				-0.39999982714653015
			],
			"type":"VEC3"
		},
		{
			"bufferView":1,
			"componentType":5126,
			"count":75,
			"type":"VEC3"
		},
		{
			"bufferView":2,
			"componentType":5126,
			"count":75,
			"type":"VEC2"
		},
		{
			"bufferView":3,
			"componentType":5123,
			"count":156,
			"type":"SCALAR"
		},
		{
			"bufferView":4,
			"componentType":5126,
			"count":75,
			"max":[
				0.09999997913837433,
				1,
				0.9999998807907104
			],
			"min":[
				-0.09999997913837433,
				-1,
				-0.39999982714653015
			],
			"type":"VEC3"
		},
		{
			"bufferView":5,
			"componentType":5126,
			"count":75,
			"type":"VEC3"
		},
		{
			"bufferView":6,
			"componentType":5126,
			"count":75,
			"type":"VEC2"
		}
	],
	"bufferViews":[
		{
			"buffer":0,
			"byteLength":900,
			"byteOffset":0,
			"target":34962
		},
		{
			"buffer":0,
			"byteLength":900,
			"byteOffset":900,
			"target":34962
		},
		{
			"buffer":0,
			"byteLength":600,
			"byteOffset":1800,
			"target":34962
		},
		{
			"buffer":0,
			"byteLength":312,
			"byteOffset":2400,
			"target":34963
		},
		{
			"buffer":0,
			"byteLength":900,
			"byteOffset":2712,
			"target":34962
		},
		{
			"buffer":0,
			"byteLength":900,
			"byteOffset":3612,
			"target":34962
		},
		{
			"buffer":0,
			"byteLength":600,
			"byteOffset":4512,
			"target":34962
		}
	],
	"buffers":[
		{
			"byteLength":5112,
			"uri":"013_socks.bin"
		}
	]
}
