{
	"asset":{
		"generator":"Khronos glTF Blender I/O v3.6.27",
		"version":"2.0"
	},
	"scene":0,
	"scenes":[
		{
			"name":"Scene",
			"nodes":[
				0,
				1,
				2
			]
		}
	],
	"nodes":[
		{
			"name":"Outline",
			"translation":[
				-19,
				0,
				0
			]
		},
		{
			"mesh":0,
			"name":"Cube",
			"rotation":[
				0,
				-0.031410761177539825,
				0,
				0.9995066523551941
			],
			"scale":[
				1.1581699848175049,
				1.1581701040267944,
				1.1581699848175049
			]
		},
		{
			"name":"Empty",
			"scale":[
				10,
				10,
				10
			]
		}
	],
	"animations":[
		{
			"channels":[
				{
					"sampler":0,
					"target":{
						"node":2,
						"path":"rotation"
					}
				}
			],
			"name":"EmptyAction",
			"samplers":[
				{
					"input":4,
					"interpolation":"LINEAR",
					"output":5
				}
			]
		}
	],
	"materials":[
		{
			"doubleSided":true,
			"name":"test",
			"pbrMetallicRoughness":{}
		}
	],
	"meshes":[
		{
			"name":"Cube",
			"primitives":[
				{
					"attributes":{
						"POSITION":0,
						"NORMAL":1,
						"TEXCOORD_0":2
					},
					"indices":3,
					"material":0
				}
			]
		}
	],
	"accessors":[
		{
			"bufferView":0,
			"componentType":5126,
			"count":228,
			"max":[
				1.9999991655349731,
				0.37173011898994446,
				2.279998302459717
			],
			"min":[
				-2.009758472442627,
				-0.7669696807861328,
				-2.2799980640411377
			],
			"type":"VEC3"
		},
		{
			"bufferView":1,
			"componentType":5126,
			"count":228,
			"type":"VEC3"
		},
		{
			"bufferView":2,
			"componentType":5126,
			"count":228,
			"type":"VEC2"
		},
		{
			"bufferView":3,
			"componentType":5123,
			"count":402,
			"type":"SCALAR"
		},
		{
			"bufferView":4,
			"componentType":5126,
			"count":101,
			"max":[
				4.166666666666667
			],
			"min":[
				0
			],
			"type":"SCALAR"
		},
		{
			"bufferView":5,
			"componentType":5126,
			"count":101,
			"type":"VEC4"
		}
	],
	"bufferViews":[
		{
			"buffer":0,
			"byteLength":2736,
			"byteOffset":0,
			"target":34962
		},
		{
			"buffer":0,
			"byteLength":2736,
			"byteOffset":2736,
			"target":34962
		},
		{
			"buffer":0,
			"byteLength":1824,
			"byteOffset":5472,
			"target":34962
		},
		{
			"buffer":0,
			"byteLength":804,
			"byteOffset":7296,
			"target":34963
		},
		{
			"buffer":0,
			"byteLength":404,
			"byteOffset":8100
		},
		{
			"buffer":0,
			"byteLength":1616,
			"byteOffset":8504
		}
	],
	"buffers":[
		{
			"byteLength":10120,
			"uri":"014_sunglass.bin"
		}
	]
}
